<svg xmlns="http://www.w3.org/2000/svg" xmlns:xlink="http://www.w3.org/1999/xlink" width="435" height="87.907" viewBox="0 0 435 87.907"><defs><clipPath id="a"><rect width="435" height="87.907" fill="none"/></clipPath></defs><g transform="translate(0)"><path d="M32.852,2.013V22.192H10.184V2.013H0V51.947H10.184V31.67H32.852V51.947H43.036V2.013Z" transform="translate(0 -1.582)"/><g transform="translate(0)"><g clip-path="url(#a)"><path d="M299.264,2.013V32.289a10.57,10.57,0,0,1-10.57,10.57h-1.411a10.57,10.57,0,0,1-10.57-10.57V2.013h-10.1V33.08A19.578,19.578,0,0,0,286.2,52.658h2.838c10.813,0,20.125-7.211,20.371-21.41V2.013Z" transform="translate(-209.635 -1.583)"/><path d="M520.284,2.2h-8.86L489.4,51.95h10.567l4.389-10.323h22.795l4.516,10.323H542.23Zm-12.1,30.433,7.633-17.616,7.6,17.616Z" transform="translate(-384.802 -1.73)"/><path d="M718.194,2.2h10.812L739.943,36.3,751.377,2.2h8.14L770.765,36.3,781.7,2.2h10.564l-17.213,49.75H766.6l-11.372-32.5-11.31,32.5h-8.389Z" transform="translate(-564.7 -1.73)"/><path d="M1112.515,30.682h18.258V21.5h-18.258V11.384H1139.1V2.2h-36.621V51.95h37.6V42.766h-27.566Z" transform="translate(-866.853 -1.73)"/><rect width="9.938" height="49.75" transform="translate(285.182 0.47)"/><path d="M1917.059,17.646a29.791,29.791,0,0,0-2.5-9.4c-2.312-4.945-6.068-7.855-11.6-8.206-5.8-.369-10.417,1.683-13.461,6.819a23.393,23.393,0,0,0-2.113,4.779,49.557,49.557,0,0,0-1.926,14.376,67.978,67.978,0,0,0,.532,7.952,30.382,30.382,0,0,0,2.514,8.959c2.692,5.622,7.124,8.322,13.361,8.115a13.294,13.294,0,0,0,11.973-7.459,28.725,28.725,0,0,0,2.979-9.4,62.315,62.315,0,0,0,.241-16.537M1910.3,35.652a18.8,18.8,0,0,1-2.122,6.117,7.635,7.635,0,0,1-8.888,3.831,7.117,7.117,0,0,1-4.525-3.58,20.642,20.642,0,0,1-2.285-7.242,49.545,49.545,0,0,1-.595-8.549,47.184,47.184,0,0,1,1.448-13.244,15.777,15.777,0,0,1,2.281-4.832,7.569,7.569,0,0,1,12.455.564,20.608,20.608,0,0,1,2.455,7.479,59.636,59.636,0,0,1-.225,19.456" transform="translate(-1482.494 0)"/><path d="M1556.226,2.967h-12.517v49.9h6.32V33.057a24.344,24.344,0,0,0,6.68.93c9.343,0,16.962-5.9,17.109-15.721V17.122c0-7.818-5.146-14.155-17.592-14.155m11.345,15.368c-.1,6.581-5.228,10.3-11.486,10.3h-2.253c-.329,0-.659-.015-.986-.047a9.542,9.542,0,0,1-2.816-.644V8.089h5.76c8.336,0,11.782,4.245,11.782,9.481Z" transform="translate(-1213.783 -2.333)"/><path d="M1728.725,18.729c-9.6-1.193-14.709,4.886-14.709,4.886s-.7-17.343,12.584-18.459a14.058,14.058,0,0,1,10.052,3.305l1.741-5.043A16.764,16.764,0,0,0,1728.126,0h-1.255c-10.6,0-18.887,8.6-19.2,25.877v1.645c.314,15.249,7.29,23.531,16.281,23.531h1.232c8.188,0,13.978-6.222,14.661-15.321l.013-2.935h0v0c0-.271-.015-12.679-11.133-14.062m4.814,16.4c-.4,5.942-3.1,10.878-8.55,10.878a9.2,9.2,0,0,1-6.907-3.083c-2.6-2.924-4.517-9.637-4-14.191,3.772-3.772,7.088-4.865,10.905-4.865,5.449,0,9.074,3.417,8.55,11.261" transform="translate(-1342.701)"/><path d="M1870.465,339.037h3.591l-1.8-4.963Z" transform="translate(-1470.703 -262.675)" fill="#c51c2c"/><path d="M1681.09,318.78H1756.8V293.628H1681.09Zm14.936-18.931h3.512l-2.962,4.535-1.8-2.642Zm-8.828,12.618,4.446-6.571-4.446-6.047h3.608l4.16,6.02-4.323,6.6Zm8.889,0-1.313-1.991,1.74-2.611,3.1,4.6Zm19.9-.143h-2.107V302.9l-3.909,9.564h-1.634l-3.71-9.564v9.421h-2.168V299.848h3.191l3.662,9.586,3.682-9.586h2.992Zm11.084.021-1.241-3.357h-4.875l-1.138,3.357h-2.438l4.948-12.5h2.175l4.977,12.5Zm13.662-4.723v3.7a7.612,7.612,0,0,1-4.108,1.188c-4.78.165-6.77-2.762-6.848-6.349a6.6,6.6,0,0,1,6.565-6.641,6.826,6.826,0,0,1,3.849,1.075l-.569,1.93a5.007,5.007,0,0,0-3.015-.991c-3.05,0-4.512,2.19-4.457,4.72s.739,4.442,4.656,4.442a3.912,3.912,0,0,0,1.673-.434v-2.331h-2.993V306.1h5.248Zm9.466-2.657-.05,1.837-4.644.033-.037,3.6,5.229-.067-.143,1.972h-7.359v-12.5h7.5l-.143,1.892-5.077-.013-.009,3.276Z" transform="translate(-1321.802 -230.873)" fill="#c51c2c"/></g></g></g></svg>